<svg width="184" height="76" viewBox="0 0 184 76" fill="none" xmlns="http://www.w3.org/2000/svg">
<path d="M14.0572 18.0527H21.4165L35.1363 59.2223H27.6719L24.2025 48.9589H11.166L7.74919 59.2223H0.28476L14.0572 18.0527ZM22.8883 43.3343L17.7368 26.3446L12.375 43.3343H22.8883Z" fill="white"/>
<path d="M43.1198 18.0527L52.3715 33.2449L61.5707 18.0527H69.4556L56.5243 38.9275L69.0351 59.2223H61.1501L52.3715 44.61L43.5404 59.2223H35.6028L48.1137 38.9275L35.1823 18.0527H43.1198Z" fill="white"/>
<path d="M72.8464 59.2223V18.0527H80.0616V59.2223H72.8464Z" fill="#EC7979"/>
<path d="M115.57 25.069H103.701V59.2223H96.5381V25.069H84.6696V18.0527H115.57V25.069Z" fill="#EC7979"/>
</svg>
